<svg width="52" height="52" viewBox="0 0 52 52" fill="none" xmlns="http://www.w3.org/2000/svg">
    <path d="M28.5409 20.5833C29.7325 20.5833 30.7075 19.6083 30.7075 18.4167V14.0833H35.0409C36.2325 14.0833 37.2075 13.1083 37.2075 11.9167C37.2075 10.725 36.2325 9.75 35.0409 9.75H30.7075V5.41667C30.7075 4.225 29.7325 3.25 28.5409 3.25C27.3492 3.25 26.3742 4.225 26.3742 5.41667V9.75H22.0409C20.8492 9.75 19.8742 10.725 19.8742 11.9167C19.8742 13.1083 20.8492 14.0833 22.0409 14.0833H26.3742V18.4167C26.3742 19.6083 27.3492 20.5833 28.5409 20.5833ZM17.7075 40.0833C15.3242 40.0833 13.3959 42.0333 13.3959 44.4167C13.3959 46.8 15.3242 48.75 17.7075 48.75C20.0909 48.75 22.0409 46.8 22.0409 44.4167C22.0409 42.0333 20.0909 40.0833 17.7075 40.0833ZM39.3742 40.0833C36.9909 40.0833 35.0625 42.0333 35.0625 44.4167C35.0625 46.8 36.9909 48.75 39.3742 48.75C41.7575 48.75 43.7075 46.8 43.7075 44.4167C43.7075 42.0333 41.7575 40.0833 39.3742 40.0833ZM20.0909 29.25H36.2325C37.8575 29.25 39.2875 28.3617 40.0242 27.0183L47.0442 13.715C47.5859 12.675 47.2175 11.375 46.1775 10.8117C45.1159 10.2267 43.7942 10.6383 43.2309 11.7L36.2325 24.9167H21.0225L11.7925 5.41667H6.87419C5.68252 5.41667 4.70752 6.39167 4.70752 7.58333C4.70752 8.775 5.68252 9.75 6.87419 9.75H9.04085L16.8409 26.195L13.9159 31.4817C12.3342 34.385 14.4142 37.9167 17.7075 37.9167H41.5409C42.7325 37.9167 43.7075 36.9417 43.7075 35.75C43.7075 34.5583 42.7325 33.5833 41.5409 33.5833H17.7075L20.0909 29.25Z"
          fill="white"/>
</svg>
